<?xml version="1.0" encoding="utf-8"?>
<svg xmlns="http://www.w3.org/2000/svg" viewBox="0 0 500 500">
  <path d="M 78.275 113.641 C 78.275 89.014 96.966 68.992 119.955 68.992 L 370.033 68.992 C 393.022 68.992 411.713 89.014 411.713 113.641 L 411.713 292.239 L 370.033 292.239 L 370.033 113.641 L 119.955 113.641 L 119.955 292.239 L 78.275 292.239 L 78.275 113.641 Z M 36.596 327.959 C 36.596 320.564 42.197 314.564 49.1 314.564 L 440.888 314.564 C 447.792 314.564 453.392 320.564 453.392 327.959 C 453.392 357.54 430.989 381.539 403.376 381.539 L 86.612 381.539 C 58.999 381.539 36.596 357.54 36.596 327.959 Z M 219.595 192.476 L 199.407 214.103 L 219.595 235.73 C 225.717 242.288 225.717 252.892 219.595 259.38 C 213.474 265.868 203.575 265.938 197.518 259.38 L 166.258 225.893 C 160.137 219.335 160.137 208.731 166.258 202.243 L 197.518 168.756 C 203.64 162.198 213.539 162.198 219.595 168.756 C 225.652 175.313 225.717 185.918 219.595 192.406 L 219.595 192.476 Z M 292.535 168.756 L 323.795 202.243 C 329.917 208.801 329.917 219.405 323.795 225.893 L 292.535 259.38 C 286.413 265.938 276.514 265.938 270.458 259.38 C 264.401 252.823 264.336 242.218 270.458 235.73 L 290.647 214.103 L 270.458 192.476 C 264.336 185.918 264.336 175.313 270.458 168.826 C 276.58 162.337 286.478 162.268 292.535 168.826 L 292.535 168.756 Z" style="fill: rgb(0, 228, 136);"/>
</svg>